<svg width="680" height="708" viewBox="0 0 680 708" fill="none" xmlns="http://www.w3.org/2000/svg">
<path fill-rule="evenodd" clip-rule="evenodd" d="M472.765 115.25L204.852 118.292L76.7891 340.104L199.504 588.289L474.872 589.515L611.434 352.982L472.765 115.25ZM532.9 472.242L599.347 357.152L493.14 356.679L425.869 473.195L532.9 472.242ZM528.034 480.669L470.044 581.111L363.837 580.638L421.004 481.622L528.034 480.669ZM411.274 481.708L354.182 580.595L209.354 579.95L265.323 483.008L411.274 481.708ZM258.086 478.778L202.399 575.231L137.647 444.273L189.957 353.669L258.086 478.778ZM194.87 345.16L262.998 470.27L331.419 351.762L262.529 229.248L261.784 229.261L194.87 345.16ZM185.259 345.041L133.181 435.241L86.2923 340.41L135.925 254.444L185.259 345.041ZM140.837 245.936L190.171 336.532L256.898 220.959L257.858 220.942L207.24 130.923L140.837 245.936ZM270.189 474.581L416.139 473.282L483.484 356.636L338.657 355.991L270.189 474.581ZM482.202 348.247L338.701 347.608L272.056 229.088L411.33 226.745L482.202 348.247ZM406.487 218.442L267.386 220.782L214.408 126.567L351.985 125.005L406.487 218.442ZM361.626 124.896L416.098 218.28L522.117 216.497L467.981 123.688L361.626 124.896ZM526.96 224.8L420.941 226.583L491.933 348.291L599.272 348.769L526.96 224.8Z" fill="url(#paint0_linear_521_1241)" fill-opacity="0.7"/>
<defs>
<linearGradient id="paint0_linear_521_1241" x1="197.678" y1="117.365" x2="470.13" y2="603.586" gradientUnits="userSpaceOnUse">
<stop stop-color="white"/>
<stop offset="1" stop-color="#3C3C3C"/>
</linearGradient>
</defs>
</svg>
