<svg width="123" height="109" viewBox="0 0 123 109" fill="none" xmlns="http://www.w3.org/2000/svg">
<path fill-rule="evenodd" clip-rule="evenodd" d="M50.8754 0.000186003H51.9145C51.9277 -6.23266e-05 51.941 -6.16755e-05 51.9542 0.000186003H72.0735L122.949 91.152L114.47 108.11H9.53914L0 91.152L50.8754 0.000186003ZM91.455 73.1336L51.7209 2.83482L44.8436 15.1568L54.3143 32.2652L54.4142 32.3222L54.3795 32.383L76.9379 73.1336H91.455ZM94.185 73.6554C94.2781 73.8131 94.3315 73.9971 94.3315 74.1935C94.3315 74.7789 93.857 75.2534 93.2716 75.2534H47.7561L39.3925 90.0921H119.93L70.829 2.11999H53.7519L94.185 73.6554ZM48.9509 73.1336H74.5149L61.8481 50.2515L48.9509 73.1336ZM30.4315 105.991L38.1977 92.2119H120.049L113.16 105.991H30.4315ZM60.6507 48.0886C60.6141 48.1339 60.5807 48.1829 60.5511 48.2354L27.9982 105.991H12.4232L53.1503 34.5395L60.6507 48.0886ZM51.9482 32.3679L10.3837 105.288L2.42989 91.1479L43.6271 17.3363L51.9482 32.3679Z" fill="url(#paint0_radial_521_766)"/>
<defs>
<radialGradient id="paint0_radial_521_766" cx="0" cy="0" r="1" gradientUnits="userSpaceOnUse" gradientTransform="translate(61.4745 55.115) rotate(66.7054) scale(83.086 94.4898)">
<stop stop-color="white"/>
<stop offset="1" stop-color="white" stop-opacity="0"/>
</radialGradient>
</defs>
</svg>
