<svg width="1920" height="1000" viewBox="0 0 1920 1000" fill="none" xmlns="http://www.w3.org/2000/svg">
<g clip-path="url(#clip0_434_4072)">
<g opacity="0.3" filter="url(#filter0_f_434_4072)">
<path d="M1652.32 494.418C1652.32 282.933 1260.2 359.09 1132.58 265.935C1117.12 254.652 1109.39 249.011 1113.21 229.09C1117.04 209.169 1130.84 205.626 1158.45 198.542C1405.24 135.215 1708.73 50.8809 1984.8 61.9949C2011.7 63.0781 2025.16 63.6196 2034.08 72.908C2043 82.1964 2043 96.1874 2043 124.169V817.463C2043 858.271 2043 878.675 2028.06 888.089C2013.12 897.504 1995.78 889.21 1961.1 872.622C1826.41 808.208 1652.32 679.225 1652.32 494.418Z" fill="url(#paint0_linear_434_4072)"/>
</g>
<g opacity="0.3" filter="url(#filter1_f_434_4072)">
<path d="M1652.32 314.418C1652.32 102.933 1260.2 179.09 1132.58 85.9354C1117.12 74.6523 1109.39 69.0108 1113.21 49.0896C1117.04 29.1685 1130.84 25.6263 1158.45 18.5419C1405.24 -44.7846 1708.73 -129.119 1984.8 -118.005C2011.7 -116.922 2025.16 -116.38 2034.08 -107.092C2043 -97.8036 2043 -83.8126 2043 -55.8306V637.463C2043 678.271 2043 698.675 2028.06 708.089C2013.12 717.504 1995.78 709.21 1961.1 692.622C1826.41 628.208 1652.32 499.225 1652.32 314.418Z" fill="url(#paint1_linear_434_4072)"/>
</g>
<g opacity="0.6" filter="url(#filter2_f_434_4072)">
<path d="M-113 0L907 0C655.585 0 603.151 330.219 521.244 398.609C439.337 467 307.509 467 43.8541 467H-113V0Z" fill="url(#paint2_linear_434_4072)"/>
</g>
<g opacity="0.2">
<path d="M769.599 -30L768.577 -30C831.776 263.052 731.409 580.194 482.442 781.29C331.075 903.553 149.442 963 -31 963L-31 964C149.662 964.001 331.517 904.481 483.07 782.069C732.281 580.775 832.782 263.351 769.599 -30Z" fill="url(#paint3_linear_434_4072)"/>
<path d="M-31 905.968C113.339 892.313 259.442 840.684 390.702 749.022C661.61 559.84 794.499 252.363 755.905 -30L754.892 -30C793.493 252.005 660.811 559.177 390.13 748.201C259.03 839.751 113.13 891.316 -31 904.966L-31 905.968Z" fill="url(#paint4_linear_434_4072)"/>
<path d="M-31 844.341C90.5247 823.147 213.824 775.808 328.882 701.262C606.558 521.353 759.49 232.696 743.634 -30H742.626C758.484 232.294 605.824 520.637 328.339 700.422C213.428 774.873 90.3215 822.149 -31 843.331L-31 844.341Z" fill="url(#paint5_linear_434_4072)"/>
<path d="M-31 782.821C71.7012 758.713 176.077 716.893 276.169 656.822C470.012 540.485 611.118 377.701 682.542 208.54C716.103 129.055 734.281 48.1534 735.311 -30L734.311 -30C733.282 48.0041 715.138 128.771 681.622 208.15C610.288 377.096 469.336 539.724 275.656 655.964C175.722 715.94 71.522 757.701 -31 781.793L-31 782.821Z" fill="url(#paint6_linear_434_4072)"/>
<path d="M-31 723.115C55.6004 699.115 143.658 663.37 229.703 615.612C427.021 506.094 576.433 354.123 658.477 196.929C698.044 121.12 721.948 44.081 727.991 -30L726.989 -30C720.949 43.8986 697.096 120.775 657.591 196.466C575.65 353.463 426.39 505.3 229.218 614.737C143.326 662.41 55.4341 698.1 -31 722.077L-31 723.115Z" fill="url(#paint7_linear_434_4072)"/>
<path d="M-31 666.389C42.1084 644.255 116.44 614.408 189.983 576.717C390.261 474.077 546.821 332.684 638.031 187.033C683.554 114.337 712.81 40.5585 723.082 -30L722.072 -30C711.808 40.3428 682.628 113.933 637.184 186.501C546.085 331.976 389.673 473.254 189.528 575.827C116.131 613.442 41.9542 643.237 -31 665.343L-31 666.389Z" fill="url(#paint8_linear_434_4072)"/>
<path d="M-31 614.816C30.7217 595.396 93.4324 570.948 155.973 541.408C358.783 445.612 521.447 314.385 620.483 179.637C672.232 109.227 706.627 37.8246 720.276 -30H719.256C705.621 37.5752 671.33 108.766 619.678 179.044C520.759 313.634 358.236 444.764 155.546 540.503C93.1453 569.977 30.5788 594.377 -31 613.767L-31 614.816Z" fill="url(#paint9_linear_434_4072)"/>
<path fill-rule="evenodd" clip-rule="evenodd" d="M-31 567.29C20.9435 550.861 73.6606 531.184 126.488 508.227C331.164 419.284 498.788 297.935 604.336 173.619C662.564 105.036 701.932 35.5081 718.17 -30L716.504 -30C716.37 -29.5081 716.232 -29.0158 716.093 -28.523C716.203 -29.0158 716.31 -29.5082 716.414 -30L715.392 -30C713.801 -22.5325 711.502 -14.939 708.517 -7.23702C711.014 -14.9599 712.647 -22.5551 713.379 -30L712.373 -30C711.109 -17.2756 707.186 -4.08381 700.77 9.46309C705.941 -4.15361 707.947 -17.3573 706.525 -30L705.518 -30C707.464 -12.9447 703.081 5.21 692.954 24.102C690.803 27.7293 688.484 31.3784 685.999 35.0473C696.313 16.4945 700.036 -1.36749 696.318 -18.1137C695.41 -22.2039 694.071 -26.1661 692.316 -30L691.214 -30C693.037 -26.0962 694.418 -22.0614 695.342 -17.8966C699.891 2.59067 693.118 24.9074 676.396 48.2697C674.679 50.4857 672.905 52.7077 671.075 54.9351C684.005 36.3468 689.359 18.3899 686.03 1.55787C683.735 -10.045 677.422 -20.5679 667.488 -30L666.025 -30C676.284 -20.4965 682.745 -9.90124 685.05 1.75224C690.049 27.0271 675.079 55.157 643.379 84.4374C666.576 61.8806 677.651 39.9385 674.098 19.6025C670.627 -0.257942 653.513 -16.817 625.265 -30L622.871 -30C652.178 -16.7281 669.648 -0.0587406 673.113 19.7749C676.498 39.1427 666.299 60.2107 644.34 82.0892C647.174 78.7632 649.672 75.4553 651.823 72.1693C659.518 60.4136 662.789 48.9091 661.102 37.8537C659.415 26.7982 652.861 16.7964 642.011 7.87715C631.164 -1.03963 615.998 -8.89722 597.018 -15.6736C581.66 -21.1571 563.787 -25.9384 543.657 -30L538.482 -30C560.614 -25.7419 580.122 -20.6441 596.683 -14.7312C615.602 -7.97641 630.652 -0.166633 641.377 8.65036C652.1 17.4648 658.475 27.2633 660.114 38.0047C661.754 48.7462 658.591 60.0034 650.987 71.6209C646.293 78.7915 639.914 86.0882 631.948 93.4684C631.138 94.1585 630.318 94.8494 629.486 95.5408C627.809 96.9345 626.088 98.3304 624.323 99.7282C629.168 95.0886 633.268 90.4736 636.586 85.8949C644.402 75.1102 647.908 64.4921 646.557 54.2192C645.206 43.9462 639.075 34.5981 628.737 26.2059C618.402 17.8157 603.83 10.3533 585.514 3.84423C548.881 -9.17446 497.167 -18.4162 434.128 -23.5878C312.437 -33.5711 148.44 -28.3946 -31 -5.86098L-31 -4.85263C148.441 -27.3934 312.414 -32.5691 434.046 -22.5907C497.049 -17.4221 548.665 -8.18965 585.18 4.78709C603.438 11.2758 617.894 18.6914 628.108 26.983C638.319 35.2726 644.259 44.4101 645.566 54.3497C646.873 64.2894 643.498 74.6545 635.777 85.3073C630.284 92.8868 622.603 100.594 612.882 108.371C610.952 109.765 608.98 111.161 606.966 112.558C612.343 107.981 616.87 103.419 620.501 98.8842C628.386 89.0373 632.077 79.278 631.02 69.7658C629.962 60.2535 624.217 51.5458 614.363 43.6756C604.509 35.8066 590.509 28.7412 572.842 22.5082C537.506 10.0411 487.391 0.865931 426.148 -4.69974C307.057 -15.5222 145.783 -12.7046 -31 6.17131L-31 7.17746C145.779 -11.7038 307.025 -14.5204 426.057 -3.70332C487.267 1.85923 537.287 11.0248 572.51 23.4518C590.122 29.6657 604.008 36.6856 613.739 44.4577C623.47 52.2287 629.008 60.7182 630.027 69.8764C631.045 79.0346 627.506 88.5356 619.721 98.2584C613.861 105.577 605.612 112.999 595.146 120.46C591.385 122.887 587.5 125.317 583.496 127.748C591.348 122.174 597.753 116.596 602.603 111.039C610.487 102.009 614.305 92.991 613.492 84.1263C612.68 75.2616 607.286 67.0899 597.893 59.6466C588.5 52.2035 575.062 45.4499 558.046 39.4181C524.01 27.3533 475.547 18.1371 416.192 12.1155C300.116 0.33939 142.286 0.771254 -31 16.0736L-31 17.078C142.277 1.77192 300.075 1.34082 416.092 13.1109C475.414 19.1293 523.786 28.3353 557.712 40.3612C574.677 46.3747 588.001 53.0837 597.273 60.4311C606.545 67.7784 611.719 75.7251 612.497 84.2177C613.275 92.7104 609.632 101.467 601.851 110.381C594.069 119.295 582.187 128.319 566.599 137.322C562.245 139.837 557.605 142.349 552.686 144.855C566.141 137.408 576.617 129.88 583.775 122.347C591.615 114.097 595.523 105.79 594.923 97.5476C594.323 89.3055 589.254 81.6528 580.303 74.6275C571.35 67.6011 558.46 61.1572 542.086 55.3314C509.335 43.6785 462.529 34.4587 405.093 28.0422C292.258 15.437 138.295 13.6404 -31 25.5292L-31 26.5321C138.281 14.6408 292.208 16.438 404.982 29.0365C462.388 35.4496 509.106 44.6588 541.752 56.2742C558.076 62.0825 570.854 68.4826 579.686 75.4148C588.521 82.3482 593.355 89.7691 593.926 97.6202C594.498 105.471 590.788 113.515 583.051 121.657C575.315 129.798 563.599 137.984 548.288 146.1C546.904 146.833 545.492 147.565 544.051 148.297C552.666 143.294 559.659 138.234 564.896 133.145C572.653 125.608 576.615 117.949 576.197 110.273C575.778 102.596 571.008 95.414 562.478 88.7662C553.945 82.1159 541.588 75.9495 525.846 70.3057C494.359 59.0166 449.212 49.778 393.715 42.9836C284.152 29.5701 134.149 25.6709 -31 34.3779L-31 35.3798C134.13 26.6713 284.092 30.5707 393.593 43.9767C449.062 50.7676 494.124 59.9951 525.509 71.2476C541.204 76.8746 553.45 82.9979 561.864 89.5556C570.281 96.1157 574.803 103.06 575.199 110.327C575.595 117.595 571.855 124.99 564.2 132.427C556.548 139.862 545.04 147.283 530.05 154.585C529.107 155.044 528.151 155.503 527.182 155.961C534.682 151.78 540.851 147.536 545.59 143.245C553.235 136.324 557.22 129.22 556.956 122.023C556.691 114.825 552.196 108.034 544.064 101.693C535.928 95.3488 524.084 89.3987 508.957 83.8852C478.699 72.8566 435.187 63.5338 381.616 56.335C275.449 42.0687 129.678 36.132 -31 41.8394L-31 42.8405C129.653 37.1323 275.38 43.0688 381.483 57.3266C435.027 64.5217 478.456 73.8329 508.615 84.8253C523.697 90.3224 535.432 96.2297 543.45 102.483C551.473 108.739 555.708 115.286 555.957 122.06C556.206 128.833 552.463 135.673 544.92 142.503C537.382 149.329 526.112 156.082 511.474 162.673C510.629 163.054 509.773 163.434 508.906 163.813C506.06 164.923 503.15 166.03 500.177 167.133C510.987 162.198 519.592 157.112 525.765 151.912C533.261 145.596 537.243 139.045 537.112 132.328C536.981 125.612 532.746 119.221 525.009 113.204C517.265 107.181 505.936 101.469 491.433 96.1126C462.423 85.399 420.594 76.068 369.02 68.5571C266.355 53.6058 124.983 45.854 -31 48.8069L-31 49.8076C124.953 46.8544 266.276 54.6053 368.876 69.5473C420.424 77.0542 462.173 86.3731 491.088 97.0513C505.547 102.391 516.768 108.061 524.396 113.994C532.03 119.932 535.99 126.071 536.113 132.348C536.236 138.624 532.518 144.914 525.121 151.146C517.731 157.373 506.74 163.477 492.5 169.379C488.136 171.188 483.469 172.976 478.51 174.743C477.879 174.953 477.245 175.163 476.609 175.373C489.063 170.417 498.852 165.234 505.661 159.864C512.988 154.085 516.945 148.023 516.928 141.729C516.911 135.435 512.92 129.394 505.561 123.656C498.194 117.911 487.367 112.401 473.476 107.174C445.689 96.7194 405.526 87.3551 355.942 79.5378C256.86 63.9168 120.067 54.4589 -31 54.8548L-31 55.8553C120.032 55.4594 256.771 64.9156 355.786 80.5261C405.345 88.3394 445.431 97.6911 473.124 108.111C486.974 113.322 497.694 118.789 504.947 124.445C512.209 130.108 515.913 135.892 515.929 141.732C515.945 147.572 512.273 153.376 505.042 159.078C497.82 164.774 487.13 170.3 473.309 175.587C468.383 177.472 463.062 179.324 457.364 181.143C468.792 176.857 477.836 172.336 484.224 167.609C491.359 162.329 495.272 156.721 495.354 150.822C495.435 144.923 491.678 139.209 484.691 133.733C477.694 128.25 467.367 122.932 454.09 117.831C427.533 107.627 389.057 98.2448 341.499 90.158C246.374 73.9833 114.823 62.9755 -30.6133 60.9641C-30.7422 60.9623 -30.8711 60.9605 -31 60.9588L-31 61.9593C-30.8757 61.961 -30.7515 61.9628 -30.6272 61.9645C114.774 63.9754 246.272 74.9807 341.332 91.1444C388.865 99.227 427.266 108.596 453.732 118.765C466.969 123.851 477.191 129.126 484.075 134.521C490.971 139.925 494.429 145.376 494.354 150.808C494.279 156.24 490.672 161.593 483.63 166.804C476.599 172.007 466.235 176.997 452.864 181.715C450.432 182.573 447.901 183.422 445.274 184.261C452.925 181.216 459.194 178.021 463.961 174.687C470.897 169.836 474.753 164.618 474.919 159.055C475.086 153.491 471.55 148.051 464.917 142.793C458.272 137.525 448.425 132.361 435.743 127.355C410.372 117.339 373.536 107.909 327.953 99.5516C236.78 82.8362 110.523 70.4008 -29.21 66.2032C-29.8069 66.1852 -30.4036 66.1675 -31 66.1499L-31 67.1508C-30.4136 67.1682 -29.8269 67.1856 -29.24 67.2033C110.459 71.3999 236.663 83.8319 327.774 100.536C373.333 108.888 410.094 118.305 435.376 128.285C448.02 133.277 457.763 138.398 464.297 143.577C470.842 148.767 474.073 153.938 473.921 159.025C473.768 164.112 470.233 169.08 463.389 173.867C456.557 178.645 446.524 183.172 433.604 187.395C430.672 188.354 427.592 189.296 424.369 190.222C422.622 190.67 420.845 191.114 419.04 191.555C415.456 192.394 411.785 193.223 408.029 194.041C410.143 193.462 412.191 192.875 414.17 192.278C426.651 188.517 436.435 184.404 443.166 179.962C449.882 175.53 453.664 170.698 453.904 165.471C454.143 160.244 450.818 155.086 444.535 150.057C438.238 145.018 428.871 140.026 416.786 135.138C392.61 125.358 357.437 115.945 313.866 107.398C226.715 90.3039 105.879 76.6616 -27.9902 70.519C-28.9941 70.4729 -29.9974 70.4274 -31 70.3823L-31 71.3838C-30.0127 71.4282 -29.0246 71.4731 -28.0359 71.5185C105.8 77.6596 226.585 91.2979 313.673 108.38C357.222 116.922 392.323 126.321 416.412 136.065C428.46 140.939 437.724 145.887 443.911 150.839C450.112 155.801 453.122 160.685 452.905 165.425C452.688 170.166 449.244 174.753 442.616 179.127C436.002 183.491 426.325 187.57 413.882 191.32C410.251 192.414 406.387 193.48 402.298 194.516C410.622 191.819 417.369 188.902 422.385 185.773C428.877 181.722 432.58 177.241 432.882 172.322C433.185 167.402 430.06 162.5 424.113 157.682C418.151 152.851 409.249 148.018 397.743 143.238C374.726 133.676 341.174 124.283 299.568 115.569C216.349 98.1386 100.824 83.4098 -27.2852 75.5094C-28.5246 75.4329 -29.7628 75.3573 -31 75.2824L-31 76.2848C-29.7833 76.3584 -28.5655 76.4328 -27.3467 76.508C100.73 84.4064 216.204 99.1305 299.363 116.548C340.947 125.257 374.428 134.636 397.36 144.162C408.829 148.927 417.631 153.717 423.484 158.459C429.354 163.215 432.157 167.836 431.885 172.26C431.613 176.684 428.264 180.926 421.856 184.924C415.465 188.912 406.143 192.584 394.176 195.903C389.289 197.259 383.966 198.554 378.229 199.787C376.862 200.048 375.48 200.305 374.081 200.56C374.372 200.487 374.662 200.412 374.95 200.338C386.471 197.367 395.535 194.003 401.816 190.254C408.079 186.515 411.691 182.321 412.051 177.65C412.411 172.979 409.483 168.28 403.867 163.624C398.234 158.955 389.792 154.24 378.863 149.536C356.997 140.126 325.061 130.714 285.419 121.823C206.128 104.04 95.9231 88.3215 -26.4042 78.8795C-27.9379 78.7611 -29.4698 78.644 -31 78.5281L-31 79.5315C-29.4954 79.6455 -27.989 79.7607 -26.481 79.8771C95.8139 89.3166 205.969 105.029 285.201 122.799C324.82 131.685 356.687 141.081 378.468 150.455C389.362 155.143 397.704 159.814 403.229 164.395C408.771 168.988 411.376 173.401 411.054 177.573C410.733 181.745 407.484 185.705 401.304 189.394C395.142 193.072 386.184 196.408 374.701 199.369C368.998 200.84 362.68 202.216 355.783 203.496C366.574 200.921 375.095 197.95 381.046 194.585C387.067 191.179 390.581 187.298 390.987 182.905C391.393 178.512 388.651 174.05 383.356 169.596C378.043 165.127 370.052 160.571 359.691 155.987C338.961 146.816 308.628 137.484 270.939 128.518C195.556 110.584 90.6643 94.0948 -25.8697 83.2964C-27.5821 83.1377 -29.2922 82.9807 -31 82.8254L-31 83.83C-29.3228 83.9826 -27.6434 84.1368 -25.9618 84.2926C90.5405 95.0881 195.383 111.572 270.708 129.492C308.375 138.453 338.639 147.768 359.287 156.902C369.614 161.471 377.506 165.982 382.713 170.362C387.938 174.757 390.351 178.926 389.992 182.812C389.633 186.699 386.496 190.353 380.554 193.714C374.632 197.062 366.047 200.047 355.058 202.64C349.26 204.008 342.801 205.266 335.724 206.411C335.897 206.374 336.069 206.336 336.24 206.299C346.79 203.997 355.121 201.274 360.932 198.124C366.723 194.985 370.138 191.352 370.588 187.179C371.038 183.006 368.475 178.727 363.487 174.424C358.481 170.105 350.923 165.665 341.105 161.163C321.464 152.156 292.668 142.852 256.855 133.785C185.222 115.65 85.4319 98.44 -25.5385 86.4513C-27.3617 86.2543 -29.1822 86.0594 -31 85.8664L-31 86.8725C-29.2178 87.0617 -27.4331 87.2529 -25.6457 87.446C85.2932 99.4314 185.035 116.634 256.61 134.755C292.402 143.817 321.13 153.103 340.689 162.072C350.472 166.558 357.933 170.953 362.835 175.182C367.755 179.426 369.989 183.407 369.594 187.071C369.199 190.736 366.168 194.148 360.457 197.244C354.766 200.328 346.541 203.028 336.027 205.321C330.678 206.488 324.744 207.548 318.262 208.5C317.338 208.602 316.41 208.704 315.478 208.804C316.207 208.667 316.925 208.527 317.633 208.384C327.692 206.365 335.648 203.914 341.216 201.021C346.763 198.139 350.069 194.75 350.555 190.797C351.042 186.843 348.656 182.752 343.974 178.609C339.273 174.45 332.149 170.138 322.881 165.736C304.338 156.929 277.1 147.705 243.191 138.601C175.368 120.392 80.775 102.639 -24.5131 89.655C-26.6794 89.3879 -28.8417 89.1238 -31 88.8628L-31 89.8706C-28.8823 90.1268 -26.7607 90.3859 -24.6353 90.648C80.6216 103.628 175.166 121.373 242.933 139.568C276.82 148.666 303.99 157.871 322.452 166.64C331.687 171.026 338.714 175.29 343.312 179.358C347.928 183.443 349.987 187.231 349.563 190.674C349.14 194.118 346.224 197.292 340.756 200.133C335.309 202.963 327.458 205.392 317.437 207.403C311.593 208.577 305.02 209.606 297.772 210.49C298.022 210.445 298.271 210.401 298.519 210.356C298.768 210.311 299.016 210.265 299.263 210.22C308.849 208.445 316.445 206.228 321.779 203.557C327.092 200.897 330.291 197.718 330.812 193.956C331.333 190.193 329.117 186.263 324.726 182.258C320.318 178.236 313.609 174.036 304.866 169.719C287.375 161.084 261.629 151.929 229.545 142.793C165.371 124.518 75.7597 106.295 -24.0802 92.452C-26.3915 92.1315 -28.6982 91.8148 -31 91.5018L-31 92.5115C-28.7437 92.8184 -26.4827 93.1289 -24.2173 93.443C75.5914 107.282 165.154 125.497 229.272 143.755C261.334 152.885 287.013 162.021 304.424 170.617C313.133 174.916 319.746 179.068 324.053 182.997C328.378 186.943 330.272 190.565 329.822 193.818C329.372 197.072 326.566 200.042 321.332 202.662C316.12 205.272 308.63 207.468 299.081 209.236C291.488 210.642 282.612 211.775 272.577 212.632C275.504 212.262 278.28 211.855 280.898 211.412C290.017 209.868 297.256 207.876 302.357 205.421C307.436 202.976 310.526 200.004 311.075 196.432C311.624 192.86 309.57 189.096 305.46 185.235C301.333 181.358 295.026 177.279 286.794 173.062C270.323 164.625 246.029 155.576 215.726 146.455C155.111 128.209 70.368 109.646 -24.1391 95.0851C-26.4309 94.732 -28.718 94.3829 -31 94.0378L-31 95.0496C-28.7684 95.3873 -26.5321 95.7287 -24.2911 96.074C70.1849 110.63 154.88 129.184 215.438 147.413C245.72 156.528 269.947 165.556 286.339 173.953C294.538 178.153 300.749 182.181 304.776 185.965C308.821 189.765 310.558 193.216 310.087 196.28C309.616 199.343 306.923 202.112 301.924 204.519C296.946 206.915 289.813 208.888 280.732 210.425C274.904 211.412 268.287 212.218 260.943 212.843C261.845 212.72 262.729 212.591 263.595 212.459C272.253 211.133 279.14 209.357 284.008 207.11C288.854 204.873 291.834 202.104 292.406 198.723C292.978 195.341 291.075 191.745 287.235 188.036C283.378 184.309 277.459 180.361 269.72 176.255C254.235 168.04 231.351 159.134 202.777 150.071C145.621 131.942 65.6177 113.16 -23.6882 98.0166C-26.1313 97.6024 -28.5686 97.193 -31 96.7885L-31 97.8027C-28.624 98.1982 -26.2423 98.5983 -23.8551 99.0031C65.4199 114.141 145.376 132.913 202.475 151.024C231.028 160.081 253.846 168.966 269.252 177.139C276.958 181.228 282.782 185.124 286.542 188.756C290.318 192.405 291.907 195.682 291.42 198.556C290.934 201.429 288.356 204.001 283.59 206.201C278.846 208.391 272.065 210.15 263.444 211.47C254.383 212.857 243.324 213.754 230.521 214.169C236.281 213.804 241.526 213.294 246.216 212.637C254.414 211.49 260.949 209.89 265.585 207.815C270.199 205.749 273.065 203.151 273.659 199.931C274.254 196.712 272.507 193.259 268.936 189.678C265.348 186.08 259.817 182.247 252.571 178.24C238.072 170.222 216.597 161.451 189.752 152.456C136.055 134.465 60.7909 115.553 -23.314 99.9804C-25.8827 99.5048 -28.4448 99.0351 -31 98.5712L-31 99.588C-28.5051 100.041 -26.0035 100.5 -23.4957 100.964C60.5781 116.531 135.794 135.432 189.435 153.405C216.259 162.392 237.667 171.141 252.087 179.115C259.3 183.104 264.737 186.884 268.228 190.385C271.736 193.903 273.178 197.034 272.677 199.749C272.175 202.465 269.709 204.873 265.177 206.902C260.666 208.921 254.238 210.504 246.078 211.647C239.155 212.616 231.007 213.264 221.762 213.597C224.345 213.378 226.792 213.119 229.099 212.821C236.862 211.817 243.064 210.359 247.481 208.423C251.878 206.495 254.635 204.034 255.254 200.948C255.873 197.863 254.278 194.527 250.965 191.05C247.637 187.556 242.478 183.815 235.704 179.889C222.15 172.034 202.022 163.375 176.828 154.44C126.434 136.567 55.6915 117.56 -23.4566 101.652C-25.9779 101.145 -28.4925 100.644 -31 100.15L-31 101.17C-28.5577 101.651 -26.1087 102.139 -23.6533 102.633C55.4633 118.535 126.157 137.531 176.494 155.383C201.667 164.311 221.728 172.945 235.203 180.755C241.944 184.662 247.009 188.347 250.242 191.74C253.49 195.149 254.794 198.161 254.274 200.751C253.754 203.342 251.391 205.616 247.08 207.506C242.79 209.387 236.696 210.829 228.971 211.829C224.644 212.388 219.815 212.808 214.517 213.089C221.13 212.22 226.471 210.961 230.37 209.287C234.554 207.492 237.203 205.165 237.842 202.213C238.481 199.262 237.033 196.045 233.969 192.676C230.89 189.292 226.09 185.652 219.773 181.816C207.133 174.142 188.31 165.624 164.719 156.784C117.529 139.1 51.1789 120.096 -23.1492 103.959C-25.7739 103.389 -28.391 102.826 -31 102.271L-31 103.294C-28.4612 103.835 -25.9147 104.382 -23.361 104.936C50.9351 121.067 117.236 140.058 164.368 157.721C187.938 166.553 206.694 175.045 219.255 182.672C225.538 186.487 230.245 190.069 233.23 193.35C236.228 196.646 237.399 199.535 236.865 202.001C236.331 204.467 234.069 206.611 229.977 208.367C225.903 210.116 220.136 211.424 212.839 212.291C207.924 212.874 202.328 213.256 196.108 213.439C196.854 213.371 197.586 213.299 198.302 213.222C205.233 212.476 210.796 211.281 214.792 209.607C218.771 207.941 221.315 205.745 221.971 202.927C222.627 200.109 221.315 197.014 218.484 193.758C215.639 190.487 211.178 186.953 205.291 183.215C193.512 175.737 175.922 167.381 153.845 158.662C109.685 141.22 47.4916 122.293 -22.2696 106.009C-25.1898 105.328 -28.1002 104.656 -31 103.994L-31 105.021C-28.1754 105.665 -25.3406 106.32 -22.4965 106.984C47.2324 123.26 109.376 142.174 153.478 159.592C175.533 168.303 193.055 176.632 204.756 184.06C210.609 187.776 214.978 191.25 217.73 194.415C220.494 197.593 221.543 200.36 220.998 202.7C220.452 205.041 218.29 207.058 214.406 208.685C210.54 210.304 205.087 211.486 198.196 212.227C192.498 212.84 185.839 213.15 178.317 213.164C177.613 213.139 176.906 213.112 176.194 213.084C178.333 212.974 180.363 212.827 182.28 212.642C188.802 212.011 194.051 210.937 197.837 209.387C201.608 207.843 204.043 205.777 204.713 203.093C205.384 200.409 204.205 197.439 201.603 194.3C198.991 191.149 194.864 187.729 189.405 184.101C178.482 176.841 162.12 168.679 141.554 160.12C100.415 142.999 42.3752 124.256 -22.8183 107.945C-25.5549 107.26 -28.2824 106.585 -31 105.92L-31 107.623C-28.1626 108.363 -25.3138 109.115 -22.4544 109.879C38.3956 126.14 92.4583 144.669 130.673 161.476C149.785 169.881 164.912 177.847 174.94 184.873C179.956 188.388 183.671 191.65 185.972 194.595C188.282 197.551 189.097 200.093 188.531 202.216C187.965 204.339 185.993 206.137 182.519 207.547C179.058 208.952 174.213 209.927 168.114 210.471C162.309 210.99 155.394 211.116 147.503 210.863C149.878 210.805 152.112 210.691 154.199 210.521C159.98 210.052 164.66 209.15 168.07 207.781C171.47 206.416 173.709 204.544 174.412 202.072C175.114 199.601 174.195 196.829 172.022 193.877C169.842 190.916 166.337 187.683 161.67 184.237C152.329 177.342 138.23 169.522 120.445 161.265C84.8663 144.747 34.4516 126.441 -22.3691 110.257C-25.2577 109.434 -28.135 108.625 -31 107.829L-31 108.867C-28.2255 109.638 -25.4393 110.423 -22.6426 111.219C34.1438 127.394 84.5065 145.683 120.024 162.172C137.787 170.419 151.816 178.205 161.076 185.042C165.709 188.462 169.123 191.626 171.217 194.471C173.319 197.325 174.028 199.768 173.451 201.799C172.874 203.829 170.986 205.532 167.699 206.852C164.422 208.167 159.856 209.058 154.119 209.524C148.369 209.991 141.476 210.03 133.581 209.657C136.062 209.629 138.385 209.536 140.543 209.377C145.963 208.975 150.365 208.15 153.591 206.865C156.808 205.584 158.95 203.805 159.665 201.44C160.38 199.075 159.583 196.406 157.615 193.554C155.642 190.694 152.435 187.563 148.147 184.221C139.567 177.532 126.557 169.918 110.11 161.855C77.2109 145.725 30.4757 127.757 -22.2996 111.768C-25.2122 110.886 -28.1128 110.019 -31 109.167L-31 110.21C-28.2085 111.034 -25.4044 111.873 -22.5891 112.726C30.1511 128.704 76.833 146.654 109.671 162.754C126.093 170.805 139.032 178.383 147.533 185.01C151.786 188.325 154.903 191.383 156.793 194.122C158.688 196.87 159.294 199.212 158.708 201.15C158.123 203.088 156.321 204.701 153.222 205.935C150.131 207.166 145.844 207.981 140.469 208.379C135.294 208.762 129.14 208.758 122.126 208.38C124.334 208.371 126.409 208.302 128.343 208.174C133.424 207.837 137.565 207.086 140.617 205.883C143.661 204.684 145.71 202.998 146.435 200.738C147.16 198.479 146.476 195.914 144.699 193.163C142.918 190.406 139.989 187.381 136.055 184.145C128.183 177.669 116.191 170.271 100.997 162.414C70.603 146.697 27.3122 129.101 -21.673 113.345C-24.7972 112.34 -27.9069 111.355 -31 110.389V111.437C-28.0078 112.372 -25 113.326 -21.9787 114.297C26.9706 130.042 70.2069 147.618 100.539 163.303C115.708 171.147 127.629 178.508 135.42 184.918C139.318 188.125 142.159 191.074 143.86 193.707C145.565 196.346 146.076 198.587 145.483 200.432C144.891 202.278 143.172 203.801 140.251 204.952C137.336 206.101 133.311 206.842 128.277 207.176C124.187 207.447 119.451 207.448 114.135 207.188C114.764 207.163 115.379 207.131 115.98 207.092C120.74 206.789 124.636 206.081 127.527 204.929C130.414 203.78 132.377 202.155 133.118 199.976C133.86 197.796 133.296 195.31 131.711 192.636C130.123 189.957 127.47 187.014 123.885 183.864C116.711 177.562 105.713 170.35 91.7389 162.681C63.7833 147.34 23.8302 130.125 -21.4963 114.665C-24.6808 113.579 -27.8496 112.515 -31 111.476L-31 115.277C-27.7241 116.611 -24.4224 117.989 -21.1007 119.408C11.468 133.329 39.7657 148.68 59.1877 162.239C68.9022 169.02 76.3738 175.338 81.0502 180.789C83.3892 183.516 85.0099 186.004 85.8702 188.206C86.7298 190.405 86.8144 192.274 86.1581 193.813C85.5018 195.352 84.0953 196.583 81.9139 197.482C79.7304 198.383 76.8145 198.932 73.2298 199.126C66.0628 199.515 56.3371 198.483 44.7257 196.149C24.0728 191.998 -2.46226 183.749 -31 172.176L-31 176.939C-27.3242 178.084 -23.672 179.2 -20.047 180.287C-23.6737 179.259 -27.3257 178.205 -31 177.126L-31 178.169C-29.3586 178.65 -27.7217 179.127 -26.0895 179.598C-27.7221 179.153 -29.3589 178.704 -31 178.249L-31 179.287C-26.9846 180.398 -22.9942 181.481 -19.0319 182.538C-22.9961 181.541 -26.9864 180.52 -31 179.475L-31 180.509C-12.5005 185.322 5.50507 189.626 22.7332 193.392C5.45035 189.823 -12.5423 185.776 -31 181.274L-31 182.304C-21.0193 184.737 -11.1744 187.036 -1.50397 189.2C-11.1872 187.167 -21.0303 185.011 -31 182.737L-31 183.763C-16.7378 187.015 -2.7343 190.023 10.9128 192.778C-2.75555 190.208 -16.7551 187.41 -31 184.39L-31 185.412C-25.8237 186.509 -20.6797 187.577 -15.5723 188.615C-20.6819 187.652 -25.8257 186.662 -31 185.646L-31 186.665C-11.438 190.506 7.68757 193.967 26.182 197.037C7.64538 194.192 -11.4722 190.996 -31 187.455L-31 188.472C9.46479 195.805 48.1711 201.661 83.5997 205.976C47.937 202.006 9.29514 196.657 -31 189.965L-31 190.98C5.1731 196.984 40.016 201.907 72.5695 205.723C39.8682 202.286 5.06298 197.842 -31 192.404L-31 193.416C12.983 200.046 55.098 205.197 93.8103 208.847C54.8684 205.611 12.8136 201.018 -31 195.064L-31 196.074C8.54435 201.445 46.6583 205.709 82.3465 208.868C46.5104 206.129 8.43336 202.384 -31 197.618L-31 198.626C23.7105 205.236 75.8144 209.881 122.95 212.602C75.5059 210.409 23.4906 206.468 -31 200.71L-31 201.716C22.4998 207.368 73.6172 211.268 120.369 213.483C73.3557 211.814 22.3084 208.606 -31 203.772L-31 204.777C36.1505 210.864 99.7194 214.372 156.164 215.474C99.2798 215.047 35.8382 212.417 -31 207.371L-31 208.375C41.8105 213.869 110.597 216.499 171.275 216.536C110.122 217.204 41.4765 215.509 -31 211.142L-31 212.145C41.329 216.501 109.849 218.198 170.922 217.54C109.434 219 41.0332 218.285 -31 215.058L-31 216.059C76.9485 220.894 176.753 220.09 257.379 214.775C259.169 214.674 260.947 214.571 262.715 214.465C266.531 214.283 270.264 214.08 273.909 213.856C189.139 221.18 83.4883 223.905 -31 220.562L-31 221.563C54.6747 224.064 135.409 223.168 206.158 219.489C134.903 224.163 54.3222 226.258 -31 225.124L-31 226.125C79.0424 227.586 181.212 223.679 265.678 215.794C180.225 224.888 78.389 230.311 -30.9523 230.611C-30.9682 230.611 -30.9841 230.611 -31 230.611L-31 231.612C-30.9832 231.611 -30.9664 231.611 -30.9496 231.611C102.546 231.245 224.875 223.245 319.886 210.245C223.715 224.641 102.409 234.476 -29.566 237.059C-30.0441 237.068 -30.5221 237.077 -31 237.086L-31 238.087C-30.5156 238.078 -30.0311 238.068 -29.5464 238.059C121.364 235.105 258.351 222.672 359.789 204.773C360.203 204.708 360.617 204.643 361.029 204.578C257.827 224.229 121.599 238.871 -28.0457 244.379C-29.031 244.415 -30.0158 244.451 -31 244.486L-31 245.487C-30.0036 245.451 -29.0065 245.415 -28.009 245.378C103.426 240.541 224.53 228.658 322.02 212.52C224.002 230.275 104.094 244.105 -25.7331 251.194C-27.4904 251.29 -29.2461 251.385 -31 251.478L-31 252.48C-29.2279 252.386 -27.4542 252.29 -25.6787 252.193C131.067 243.635 273.379 225.251 380.198 201.989C272.233 227.256 131.421 248.024 -23.2632 259.305C-25.8456 259.493 -28.4246 259.678 -31 259.86L-31 260.863C-28.4004 260.679 -25.7973 260.493 -23.1906 260.302C149.732 247.692 305.348 223.226 417.159 193.861C420.279 193.041 423.365 192.218 426.416 191.391C428.519 190.867 430.599 190.34 432.658 189.812L432.296 189.918C317.828 223.365 158.081 252.227 -19.8108 268.567C-23.5475 268.91 -27.2773 269.246 -31 269.576L-31 270.58C-27.247 270.248 -23.4867 269.909 -19.7195 269.563C158.216 253.219 318.03 224.348 432.576 190.878C438.709 189.086 444.713 187.28 450.583 185.463C449.464 185.828 448.34 186.193 447.212 186.558C330.24 224.358 166.548 257.92 -16.1347 278.278C-21.1016 278.831 -26.0569 279.372 -31 279.901L-31 280.907C-26.0202 280.375 -21.028 279.83 -16.0242 279.272C166.705 258.91 330.466 225.336 447.519 187.51C459.796 183.542 471.561 179.528 482.78 175.476C475.758 178.155 468.544 180.82 461.142 183.471C342.11 226.099 174.988 264.792 -12.0065 289.435C-18.356 290.272 -24.6876 291.087 -31 291.881L-31 292.889C-24.6443 292.091 -18.2693 291.27 -11.8761 290.427C175.167 265.777 342.362 227.072 461.479 184.413C474.485 179.755 486.919 175.05 498.744 170.31C490.991 173.585 483.001 176.847 474.781 180.092C353.959 227.796 183.696 271.918 -7.36684 301.141C-15.2717 302.35 -23.1501 303.524 -31 304.663L-31 305.674C-23.1001 304.528 -15.1713 303.346 -7.21594 302.13C183.898 272.899 354.237 228.762 475.148 181.023C484.539 177.315 493.633 173.585 502.416 169.838C497.676 171.986 492.853 174.13 487.947 176.268C365.763 229.532 192.821 279.534 -1.9157 313.64C-11.6495 315.345 -21.3456 316.994 -31 318.587L-31 319.601C-21.2886 317.999 -11.5351 316.34 -1.74345 314.625C193.048 280.51 366.071 230.489 488.346 177.185C509.437 167.991 529.021 158.698 546.948 149.371C553.21 146.254 559.244 143.132 565.044 140.008C566.983 138.979 568.891 137.949 570.768 136.92C549.988 149.334 526.71 161.748 501.19 174.037C378.08 233.317 202.916 289.616 4.8791 328.871C-7.13698 331.253 -19.0991 333.545 -31 335.747L-31 336.764C-19.0349 334.551 -7.00802 332.247 5.07325 329.853C203.168 290.586 378.418 234.265 501.623 174.938C533.415 159.63 561.747 144.119 586.117 128.644C564.795 142.852 540.717 157.093 514.169 171.211C390.693 236.879 213.92 299.844 13.1212 344.528C-1.66636 347.819 -16.3778 350.965 -31 353.966L-31 354.987C-16.3062 351.973 -1.52239 348.812 13.338 345.505C214.199 300.807 391.062 237.815 514.638 172.095C553.488 151.434 587.082 130.498 614.502 109.768C589.714 129.42 560.351 149.236 526.987 168.875C403.698 241.445 225.878 311.535 22.7529 361.93C4.72344 366.403 -13.2021 370.645 -31 374.659L-31 375.684C-13.1228 371.655 4.883 367.394 22.9933 362.901C226.185 312.49 404.1 242.368 527.493 169.737C559.907 150.658 588.566 131.401 612.935 112.278C591.32 130.312 566.53 148.451 538.896 166.477C416.466 246.341 238.309 323.92 33.4462 380.267C11.8154 386.217 -9.68024 391.811 -31 397.05L-31 398.081C-9.59293 392.822 11.9911 387.206 33.711 381.232C238.645 324.865 416.903 247.25 539.442 167.316C579.758 141.017 614.053 114.461 641.285 88.3189C644.489 85.3816 647.584 82.4507 650.57 79.5273C624.185 108.1 590.625 137.183 550.902 166.033C430.091 253.777 252.356 339.31 46.3336 401.816C20.3611 409.696 -5.44036 417.022 -31 423.796L-31 424.831C-5.34482 418.034 20.5536 410.683 46.6235 402.773C252.724 340.244 430.566 254.668 551.489 166.843C599.558 131.931 638.648 96.653 666.942 62.3135C667.324 61.8799 667.702 61.4466 668.079 61.0134L668.261 60.8031C641.919 95.258 606.5 130.536 563.351 165.533C444.948 261.567 268.425 355.417 61.8465 424.301C30.6487 434.704 -0.341602 444.24 -31 452.913L-31 453.953C-0.237461 445.255 30.8585 435.689 62.1624 425.25C268.825 356.339 445.462 262.438 563.98 166.311C614.826 125.071 654.991 83.4087 682.238 43.1196C684.166 40.4105 685.987 37.7122 687.699 35.0255C662.336 78.1601 624.39 122.764 575.886 166.972C460.807 271.86 286.374 374.453 79.8609 449.866C42.6052 463.471 5.57938 475.726 -31 486.639L-31 487.683C5.69243 476.742 42.833 464.453 80.2034 450.806C286.807 375.359 461.362 272.707 576.559 167.712C634.156 115.215 676.934 62.1151 701.451 11.5178C702.482 9.39121 703.48 7.26905 704.445 5.15147C682.21 58.4482 642.868 114.227 589.354 169.43C478.587 283.693 307.172 395.422 101.358 477.507C56.8969 495.24 12.6508 510.863 -31 524.393L-31 525.44C12.7733 511.881 57.1435 496.219 101.728 478.437C307.642 396.311 479.185 284.513 590.071 170.127C645.513 112.935 685.808 55.0787 707.642 -0.0561047C709.277 -4.18385 710.808 -8.29645 712.234 -12.3926C693.747 47.6212 656.491 110.645 603.574 172.971C498.145 297.147 330.657 418.413 126.09 507.309C73.3942 530.209 20.8112 549.842 -31 566.241L-31 567.29ZM182.184 211.646C176.032 212.241 168.698 212.441 160.32 212.259C158.938 212.172 157.545 212.081 156.142 211.986C160.562 211.962 164.593 211.79 168.203 211.468C174.344 210.919 179.301 209.933 182.894 208.474C186.474 207.021 188.809 205.052 189.497 202.474C190.184 199.896 189.14 197.025 186.759 193.979C184.37 190.921 180.564 187.593 175.513 184.054C165.405 176.972 150.209 168.975 131.075 160.56C95.537 144.93 46.3429 127.825 -9.24631 112.435C50.2772 127.879 103.017 145.165 141.17 161.044C161.714 169.593 178.008 177.727 188.852 184.934C194.277 188.54 198.312 191.897 200.834 194.939C203.367 197.995 204.297 200.634 203.744 202.85C203.191 205.066 201.13 206.957 197.459 208.46C193.803 209.957 188.665 211.019 182.184 211.646ZM115.916 206.094C110.237 206.456 103.248 206.237 95.1472 205.466C94.6858 205.408 94.2218 205.349 93.7552 205.289C97.5926 205.472 101.072 205.473 104.157 205.286C108.619 205.014 112.286 204.347 115.027 203.246C117.766 202.146 119.648 200.584 120.405 198.484C121.162 196.385 120.71 193.979 119.304 191.382C117.897 188.782 115.5 185.924 112.24 182.863C105.716 176.739 95.6453 169.72 82.8078 162.247C60.3962 149.201 29.4866 134.735 -5.87703 121.199C32.804 135.128 66.6893 150.076 91.2585 163.559C105.208 171.214 116.132 178.384 123.226 184.616C126.774 187.734 129.34 190.596 130.852 193.146C132.365 195.701 132.78 197.868 132.172 199.653C131.565 201.438 129.915 202.902 127.158 203.999C124.406 205.095 120.628 205.794 115.916 206.094ZM104.097 204.287C100.254 204.521 95.7787 204.458 90.7424 204.11C91.819 204.095 92.8542 204.059 93.8466 204.001C98.0208 203.756 101.468 203.127 104.065 202.074C106.661 201.021 108.466 199.52 109.236 197.5C110.007 195.48 109.661 193.156 108.426 190.639C107.192 188.122 105.041 185.352 102.091 182.384C96.1904 176.447 87.0065 169.634 75.2576 162.374C51.8649 147.92 18.216 131.641 -20.1989 116.923C20.9431 131.884 57.0513 148.411 82.3055 163.112C95.1171 170.569 105.113 177.544 111.556 183.593C114.779 186.619 117.09 189.392 118.425 191.858C119.762 194.327 120.087 196.421 119.465 198.145C118.844 199.868 117.258 201.272 114.655 202.318C112.055 203.362 108.507 204.019 104.097 204.287ZM59.7594 161.418C42.007 149.025 16.899 135.161 -12.0757 122.255C19.538 135.56 47.0116 149.877 66.4961 162.674C77.1725 169.686 85.4279 176.227 90.6521 181.881C93.2652 184.709 95.0997 187.293 96.1067 189.584C97.1133 191.873 97.2722 193.817 96.6263 195.418C95.9803 197.02 94.5174 198.308 92.2048 199.256C89.8912 200.204 86.7786 200.788 82.9367 201.006C77.8686 201.293 71.5828 200.941 64.2884 199.986C67.6035 200.221 70.6136 200.27 73.2839 200.126C76.9273 199.928 79.9671 199.368 82.2946 198.407C84.6243 197.446 86.2841 196.065 87.0773 194.205C87.8704 192.346 87.719 190.19 86.8009 187.841C85.8838 185.494 84.1857 182.909 81.8084 180.138C77.0524 174.594 69.5026 168.22 59.7594 161.418ZM93.7883 203.002C87.9968 203.341 80.695 202.93 72.1569 201.815C76.1929 202.118 79.8221 202.184 82.9933 202.005C86.8913 201.783 90.1267 201.188 92.5834 200.182C95.041 199.174 96.7705 197.733 97.5529 195.793C98.3354 193.853 98.0912 191.614 97.0214 189.181C95.9521 186.748 94.037 184.071 91.3857 181.201C86.0812 175.461 77.7485 168.868 67.0443 161.838C47.35 148.903 19.5526 134.439 -12.4012 121.033C22.5688 134.874 53.0751 149.843 74.7327 163.226C86.4548 170.469 95.5626 177.234 101.383 183.09C104.295 186.019 106.362 188.7 107.529 191.08C108.697 193.46 108.937 195.48 108.302 197.143C107.668 198.805 106.145 200.151 103.69 201.147C101.235 202.142 97.909 202.761 93.7883 203.002Z" fill="url(#paint10_linear_434_4072)"/>
<path d="M-31 -17.2377C2.79113 -22.1331 36.0517 -26.383 68.6081 -30L59.6696 -30C29.9706 -26.6093 -0.296053 -22.6953 -31 -18.2486L-31 -17.2377Z" fill="url(#paint11_linear_434_4072)"/>
</g>
</g>
<defs>
<filter id="filter0_f_434_4072" x="872.246" y="-179" width="1410.75" height="1311.04" filterUnits="userSpaceOnUse" color-interpolation-filters="sRGB">
<feFlood flood-opacity="0" result="BackgroundImageFix"/>
<feBlend mode="normal" in="SourceGraphic" in2="BackgroundImageFix" result="shape"/>
<feGaussianBlur stdDeviation="120" result="effect1_foregroundBlur_434_4072"/>
</filter>
<filter id="filter1_f_434_4072" x="872.246" y="-359" width="1410.75" height="1311.04" filterUnits="userSpaceOnUse" color-interpolation-filters="sRGB">
<feFlood flood-opacity="0" result="BackgroundImageFix"/>
<feBlend mode="normal" in="SourceGraphic" in2="BackgroundImageFix" result="shape"/>
<feGaussianBlur stdDeviation="120" result="effect1_foregroundBlur_434_4072"/>
</filter>
<filter id="filter2_f_434_4072" x="-323" y="-210" width="1440" height="887" filterUnits="userSpaceOnUse" color-interpolation-filters="sRGB">
<feFlood flood-opacity="0" result="BackgroundImageFix"/>
<feBlend mode="normal" in="SourceGraphic" in2="BackgroundImageFix" result="shape"/>
<feGaussianBlur stdDeviation="105" result="effect1_foregroundBlur_434_4072"/>
</filter>
<linearGradient id="paint0_linear_434_4072" x1="1902.32" y1="174.279" x2="1333.87" y2="862.046" gradientUnits="userSpaceOnUse">
<stop stop-color="#00E5E5"/>
<stop offset="1" stop-color="#E961FF"/>
</linearGradient>
<linearGradient id="paint1_linear_434_4072" x1="1902.32" y1="-5.72107" x2="1333.87" y2="682.046" gradientUnits="userSpaceOnUse">
<stop stop-color="#00E5E5"/>
<stop offset="1" stop-color="#E961FF"/>
</linearGradient>
<linearGradient id="paint2_linear_434_4072" x1="755.478" y1="62.605" x2="525.517" y2="604.845" gradientUnits="userSpaceOnUse">
<stop stop-color="#00E5E5"/>
<stop offset="1" stop-color="#E961FF"/>
</linearGradient>
<linearGradient id="paint3_linear_434_4072" x1="191.364" y1="150.091" x2="636.396" y2="445.783" gradientUnits="userSpaceOnUse">
<stop stop-color="white"/>
<stop offset="1" stop-color="white" stop-opacity="0"/>
</linearGradient>
<linearGradient id="paint4_linear_434_4072" x1="191.364" y1="150.091" x2="636.396" y2="445.783" gradientUnits="userSpaceOnUse">
<stop stop-color="white"/>
<stop offset="1" stop-color="white" stop-opacity="0"/>
</linearGradient>
<linearGradient id="paint5_linear_434_4072" x1="191.364" y1="150.091" x2="636.396" y2="445.783" gradientUnits="userSpaceOnUse">
<stop stop-color="white"/>
<stop offset="1" stop-color="white" stop-opacity="0"/>
</linearGradient>
<linearGradient id="paint6_linear_434_4072" x1="191.364" y1="150.091" x2="636.396" y2="445.783" gradientUnits="userSpaceOnUse">
<stop stop-color="white"/>
<stop offset="1" stop-color="white" stop-opacity="0"/>
</linearGradient>
<linearGradient id="paint7_linear_434_4072" x1="191.364" y1="150.091" x2="636.396" y2="445.783" gradientUnits="userSpaceOnUse">
<stop stop-color="white"/>
<stop offset="1" stop-color="white" stop-opacity="0"/>
</linearGradient>
<linearGradient id="paint8_linear_434_4072" x1="191.364" y1="150.091" x2="636.396" y2="445.783" gradientUnits="userSpaceOnUse">
<stop stop-color="white"/>
<stop offset="1" stop-color="white" stop-opacity="0"/>
</linearGradient>
<linearGradient id="paint9_linear_434_4072" x1="191.364" y1="150.091" x2="636.396" y2="445.783" gradientUnits="userSpaceOnUse">
<stop stop-color="white"/>
<stop offset="1" stop-color="white" stop-opacity="0"/>
</linearGradient>
<linearGradient id="paint10_linear_434_4072" x1="191.364" y1="150.091" x2="636.396" y2="445.783" gradientUnits="userSpaceOnUse">
<stop stop-color="white"/>
<stop offset="1" stop-color="white" stop-opacity="0"/>
</linearGradient>
<linearGradient id="paint11_linear_434_4072" x1="191.364" y1="150.091" x2="636.396" y2="445.783" gradientUnits="userSpaceOnUse">
<stop stop-color="white"/>
<stop offset="1" stop-color="white" stop-opacity="0"/>
</linearGradient>
<clipPath id="clip0_434_4072">
<rect width="1920" height="1000" fill="white"/>
</clipPath>
</defs>
</svg>
