<svg width="535" height="476" viewBox="0 0 535 476" fill="none" xmlns="http://www.w3.org/2000/svg">
<path fill-rule="evenodd" clip-rule="evenodd" d="M396.21 0.748703L128.297 3.79132L0.234361 225.603L122.949 473.788L398.317 475.014L534.88 238.481L396.21 0.748703ZM456.345 357.741L522.792 242.651L416.585 242.178L349.314 358.694L456.345 357.741ZM451.48 366.168L393.49 466.61L287.282 466.137L344.449 367.121L451.48 366.168ZM334.719 367.208L277.627 466.094L132.799 465.449L188.769 368.507L334.719 367.208ZM181.531 364.277L125.844 460.73L61.0924 329.772L113.403 239.168L181.531 364.277ZM118.315 230.659L186.443 355.769L254.864 237.261L185.974 114.747L185.23 114.76L118.315 230.659ZM108.704 230.54L56.6268 320.74L9.73765 225.909L59.37 139.943L108.704 230.54ZM64.2823 131.435L113.616 222.031L180.343 106.458L181.304 106.441L130.685 16.4219L64.2823 131.435ZM193.634 360.08L339.584 358.781L406.93 242.135L262.102 241.49L193.634 360.08ZM405.648 233.746L262.146 233.107L195.501 114.587L334.775 112.244L405.648 233.746ZM329.932 103.941L190.831 106.281L137.853 12.0665L275.43 10.5041L329.932 103.941ZM285.071 10.3946L339.543 103.779L445.563 101.996L391.427 9.18671L285.071 10.3946ZM450.406 110.299L344.386 112.082L415.378 233.79L522.717 234.268L450.406 110.299Z" fill="url(#paint0_linear_415_260)" fill-opacity="0.7"/>
<defs>
<linearGradient id="paint0_linear_415_260" x1="121.123" y1="2.86366" x2="393.575" y2="489.085" gradientUnits="userSpaceOnUse">
<stop stop-color="white"/>
<stop offset="1" stop-color="#3C3C3C"/>
</linearGradient>
</defs>
</svg>
