<svg width="115" height="103" viewBox="0 0 115 103" fill="none" xmlns="http://www.w3.org/2000/svg">
<path d="M75.7694 51.2705C75.7694 65.4026 73.2867 78.1849 69.2827 87.4248C67.2806 92.0452 64.903 95.7684 62.2755 98.333C59.6492 100.896 56.7862 102.291 53.8022 102.291C50.8182 102.291 47.9552 100.896 45.3289 98.333C42.7014 95.7684 40.3238 92.0452 38.3216 87.4248C34.3177 78.1849 31.835 65.4026 31.835 51.2705C31.835 37.1384 34.3177 24.3561 38.3216 15.1162C40.3238 10.4958 42.7014 6.77258 45.3289 4.20799C47.9552 1.64453 50.8182 0.25 53.8022 0.25C56.7862 0.25 59.6492 1.64453 62.2755 4.20799C64.903 6.77258 67.2806 10.4958 69.2827 15.1162C73.2867 24.3561 75.7694 37.1384 75.7694 51.2705Z" stroke="url(#paint0_linear_521_749)" stroke-width="0.5"/>
<path d="M79.1883 51.2705C79.1883 65.4026 76.7057 78.1849 72.7017 87.4248C70.6995 92.0452 68.3219 95.7684 65.6944 98.333C63.0681 100.896 60.2051 102.291 57.2211 102.291C54.2371 102.291 51.3741 100.896 48.7478 98.333C46.1203 95.7684 43.7427 92.0452 41.7406 87.4248C37.7366 78.1849 35.2539 65.4026 35.2539 51.2705C35.2539 37.1384 37.7366 24.3561 41.7406 15.1162C43.7427 10.4958 46.1203 6.77258 48.7478 4.20799C51.3741 1.64453 54.2371 0.25 57.2211 0.25C60.2051 0.25 63.0681 1.64453 65.6944 4.20799C68.3219 6.77258 70.6995 10.4958 72.7017 15.1162C76.7057 24.3561 79.1883 37.1384 79.1883 51.2705Z" stroke="url(#paint1_linear_521_749)" stroke-width="0.5"/>
<path d="M82.6053 51.2705C82.6053 65.4026 80.1226 78.1849 76.1187 87.4248C74.1165 92.0452 71.7389 95.7684 69.1114 98.333C66.4851 100.896 63.6221 102.291 60.6381 102.291C57.6541 102.291 54.7911 100.896 52.1648 98.333C49.5373 95.7684 47.1597 92.0452 45.1576 87.4248C41.1536 78.1849 38.6709 65.4026 38.6709 51.2705C38.6709 37.1384 41.1536 24.3561 45.1576 15.1162C47.1597 10.4958 49.5373 6.77258 52.1648 4.20799C54.7911 1.64453 57.6541 0.25 60.6381 0.25C63.6221 0.25 66.4851 1.64453 69.1114 4.20799C71.7389 6.77258 74.1165 10.4958 76.1187 15.1162C80.1226 24.3561 82.6053 37.1384 82.6053 51.2705Z" stroke="url(#paint2_linear_521_749)" stroke-width="0.5"/>
<path d="M66.4938 35.2063C78.7325 42.2724 88.561 50.8136 94.561 58.9011C97.5613 62.9452 99.5969 66.8659 100.504 70.4237C101.411 73.9798 101.187 77.1565 99.6952 79.7408C98.2032 82.325 95.564 84.1072 92.0308 85.0999C88.4961 86.093 84.0829 86.2905 79.0805 85.7142C69.0765 84.5618 56.7653 80.3207 44.5266 73.2547C32.2878 66.1886 22.4594 57.6474 16.4593 49.5599C13.4591 45.5158 11.4234 41.5951 10.5162 38.0374C9.60931 34.4812 9.83312 31.3045 11.3251 28.7203C12.8171 26.136 15.4563 24.3539 18.9895 23.3611C22.5242 22.368 26.9375 22.1705 31.9399 22.7468C41.9439 23.8992 54.255 28.1403 66.4938 35.2063Z" stroke="url(#paint3_linear_521_749)" stroke-width="0.5"/>
<path d="M68.2028 32.2464C80.4415 39.3124 90.27 47.8537 96.27 55.9412C99.2703 59.9853 101.306 63.906 102.213 67.4637C103.12 71.0199 102.896 74.1966 101.404 76.7808C99.9122 79.365 97.273 81.1472 93.7398 82.1399C90.2051 83.1331 85.7919 83.3305 80.7894 82.7543C70.7854 81.6018 58.4743 77.3608 46.2355 70.2947C33.9968 63.2287 24.1683 54.6874 18.1683 46.5999C15.168 42.5558 13.1324 38.6351 12.2252 35.0774C11.3183 31.5212 11.5421 28.3445 13.0341 25.7603C14.5261 23.1761 17.1653 21.3939 20.6985 20.4012C24.2332 19.408 28.6464 19.2106 33.6489 19.7868C43.6529 20.9393 55.964 25.1803 68.2028 32.2464Z" stroke="url(#paint4_linear_521_749)" stroke-width="0.5"/>
<path d="M69.9127 29.2854C82.1515 36.3515 91.9799 44.8927 97.98 52.9802C100.98 57.0243 103.016 60.945 103.923 64.5028C104.83 68.0589 104.606 71.2357 103.114 73.8199C101.622 76.4041 98.983 78.1863 95.4498 79.179C91.9151 80.1721 87.5018 80.3696 82.4994 79.7933C72.4954 78.6409 60.1843 74.3998 47.9455 67.3338C35.7068 60.2677 25.8783 51.7265 19.8783 43.639C16.878 39.5949 14.8424 35.6742 13.9351 32.1165C13.0283 28.5603 13.2521 25.3836 14.7441 22.7994C16.2361 20.2151 18.8753 18.433 22.4084 17.4402C25.9432 16.4471 30.3564 16.2496 35.3588 16.8259C45.3628 17.9783 57.674 22.2194 69.9127 29.2854Z" stroke="url(#paint5_linear_521_749)" stroke-width="0.5"/>
<path d="M47.9466 35.2054C35.7079 42.2714 25.8794 50.8126 19.8794 58.9001C16.8791 62.9442 14.8435 66.8649 13.9363 70.4227C13.0294 73.9789 13.2532 77.1556 14.7452 79.7398C16.2372 82.324 18.8764 84.1062 22.4096 85.0989C25.9443 86.0921 30.3575 86.2895 35.36 85.7133C45.364 84.5608 57.6751 80.3198 69.9139 73.2537C82.1526 66.1877 91.9811 57.6464 97.9811 49.5589C100.981 45.5148 103.017 41.5941 103.924 38.0364C104.831 34.4802 104.607 31.3035 103.115 28.7193C101.623 26.1351 98.9841 24.3529 95.4509 23.3602C91.9162 22.367 87.503 22.1696 82.5005 22.7458C72.4965 23.8982 60.1854 28.1393 47.9466 35.2054Z" stroke="url(#paint6_linear_521_749)" stroke-width="0.5"/>
<path d="M46.2377 32.2454C33.9989 39.3115 24.1705 47.8527 18.1704 55.9402C15.1702 59.9843 13.1346 63.905 12.2273 67.4627C11.3204 71.0189 11.5442 74.1956 13.0362 76.7798C14.5282 79.3641 17.1674 81.1462 20.7006 82.1389C24.2353 83.1321 28.6486 83.3296 33.651 82.7533C43.655 81.6009 55.9661 77.3598 68.2049 70.2937C80.4436 63.2277 90.2721 54.6865 96.2721 46.599C99.2724 42.5549 101.308 38.6342 102.215 35.0764C103.122 31.5202 102.898 28.3435 101.406 25.7593C99.9143 23.1751 97.2751 21.3929 93.7419 20.4002C90.2072 19.4071 85.794 19.2096 80.7916 19.7859C70.7876 20.9383 58.4764 25.1794 46.2377 32.2454Z" stroke="url(#paint7_linear_521_749)" stroke-width="0.5"/>
<path d="M44.5277 29.2845C32.2889 36.3505 22.4605 44.8917 16.4605 52.9792C13.4602 57.0233 11.4246 60.944 10.5173 64.5018C9.61045 68.058 9.83426 71.2347 11.3263 73.8189C12.8183 76.4031 15.4575 78.1853 18.9906 79.178C22.5254 80.1712 26.9386 80.3686 31.941 79.7924C41.945 78.6399 54.2562 74.3989 66.4949 67.3328C78.7337 60.2668 88.5621 51.7255 94.5622 43.638C97.5624 39.5939 99.598 35.6732 100.505 32.1155C101.412 28.5593 101.188 25.3826 99.6964 22.7984C98.2044 20.2142 95.5652 18.432 92.032 17.4393C88.4973 16.4461 84.084 16.2487 79.0816 16.8249C69.0776 17.9773 56.7665 22.2184 44.5277 29.2845Z" stroke="url(#paint8_linear_521_749)" stroke-width="0.5"/>
<defs>
<linearGradient id="paint0_linear_521_749" x1="53.8022" y1="0" x2="77.9738" y2="112.763" gradientUnits="userSpaceOnUse">
<stop stop-color="white"/>
<stop offset="1" stop-color="white" stop-opacity="0"/>
</linearGradient>
<linearGradient id="paint1_linear_521_749" x1="57.2211" y1="0" x2="81.3927" y2="112.763" gradientUnits="userSpaceOnUse">
<stop stop-color="white"/>
<stop offset="1" stop-color="white" stop-opacity="0"/>
</linearGradient>
<linearGradient id="paint2_linear_521_749" x1="60.6381" y1="0" x2="84.8097" y2="112.763" gradientUnits="userSpaceOnUse">
<stop stop-color="white"/>
<stop offset="1" stop-color="white" stop-opacity="0"/>
</linearGradient>
<linearGradient id="paint3_linear_521_749" x1="11.1086" y1="28.5953" x2="120.85" y2="64.0436" gradientUnits="userSpaceOnUse">
<stop stop-color="white"/>
<stop offset="1" stop-color="white" stop-opacity="0"/>
</linearGradient>
<linearGradient id="paint4_linear_521_749" x1="12.8176" y1="25.6353" x2="122.559" y2="61.0836" gradientUnits="userSpaceOnUse">
<stop stop-color="white"/>
<stop offset="1" stop-color="white" stop-opacity="0"/>
</linearGradient>
<linearGradient id="paint5_linear_521_749" x1="14.5276" y1="22.6744" x2="124.269" y2="58.1227" gradientUnits="userSpaceOnUse">
<stop stop-color="white"/>
<stop offset="1" stop-color="white" stop-opacity="0"/>
</linearGradient>
<linearGradient id="paint6_linear_521_749" x1="103.332" y1="28.5943" x2="-6.40972" y2="64.0426" gradientUnits="userSpaceOnUse">
<stop stop-color="white"/>
<stop offset="1" stop-color="white" stop-opacity="0"/>
</linearGradient>
<linearGradient id="paint7_linear_521_749" x1="101.623" y1="25.6343" x2="-8.1187" y2="61.0826" gradientUnits="userSpaceOnUse">
<stop stop-color="white"/>
<stop offset="1" stop-color="white" stop-opacity="0"/>
</linearGradient>
<linearGradient id="paint8_linear_521_749" x1="99.9129" y1="22.6734" x2="-9.82867" y2="58.1217" gradientUnits="userSpaceOnUse">
<stop stop-color="white"/>
<stop offset="1" stop-color="white" stop-opacity="0"/>
</linearGradient>
</defs>
</svg>
