<svg width="1346" height="1353" viewBox="0 0 1346 1353" fill="none" xmlns="http://www.w3.org/2000/svg">
<path d="M673.082 854.298C531.379 777.627 435.144 627.729 435.144 455.353C435.144 282.977 531.379 133.101 673.082 56.4082" stroke="url(#paint0_linear_416_3643)" stroke-width="3" stroke-miterlimit="10"/>
<path d="M673.082 56.4082C633.687 66.1617 595.025 82.116 558.345 104.164C443.242 173.364 363.291 304.917 363.291 455.353C363.291 605.789 443.242 737.342 558.345 806.542C595.025 828.59 633.687 844.544 673.082 854.298" stroke="url(#paint1_linear_416_3643)" stroke-width="3" stroke-miterlimit="10"/>
<path d="M673.081 56.4082C628.733 57.2694 583.136 66.1401 538.184 83.7308C396.029 139.302 291.437 284.915 291.437 455.353C291.437 625.791 396.029 771.404 538.184 826.975C583.157 844.544 628.755 853.437 673.081 854.298" stroke="url(#paint2_linear_416_3643)" stroke-width="3" stroke-miterlimit="10"/>
<path d="M673.082 56.4084C623.801 48.3774 571.225 50.1429 518.003 63.2982C348.752 105.111 219.541 264.934 219.541 455.353C219.541 645.772 348.73 805.617 517.981 847.408C571.203 860.563 623.779 862.329 673.06 854.298" stroke="url(#paint3_linear_416_3643)" stroke-width="3" stroke-miterlimit="10"/>
<path d="M673.081 56.4081C618.847 39.4848 559.292 33.9945 497.821 42.8652C301.409 70.4462 147.666 244.954 147.666 455.353C147.666 665.752 301.409 840.281 497.799 867.841C559.271 876.69 618.825 871.221 673.06 854.298" stroke="url(#paint4_linear_416_3643)" stroke-width="3" stroke-miterlimit="10"/>
<path d="M673.081 56.4082C613.893 30.5927 547.403 17.9972 477.639 22.4325C254.197 36.2123 75.813 224.973 75.813 455.353C75.813 685.733 254.218 874.494 477.639 888.273C547.403 892.709 613.893 880.113 673.081 854.298" stroke="url(#paint5_linear_416_3643)" stroke-width="3" stroke-miterlimit="10"/>
<path d="M673.082 56.4084C608.939 21.7222 535.514 2 457.458 2C206.984 2 3.93848 204.971 3.93848 455.353C3.93848 705.735 206.984 908.706 457.458 908.706C535.492 908.706 608.939 888.984 673.06 854.298" stroke="url(#paint6_linear_416_3643)" stroke-width="3" stroke-miterlimit="10"/>
<path d="M490.369 677.659C567.068 536.029 717.02 439.829 889.459 439.829C1061.9 439.829 1211.85 536.029 1288.55 677.659" stroke="url(#paint7_linear_416_3643)" stroke-width="3" stroke-miterlimit="10"/>
<path d="M1288.55 677.659C1278.79 638.28 1262.83 599.632 1240.78 562.965C1171.55 447.904 1039.95 367.981 889.459 367.981C738.968 367.981 607.367 447.904 538.141 562.965C516.086 599.632 500.126 638.28 490.369 677.659" stroke="url(#paint8_linear_416_3643)" stroke-width="3" stroke-miterlimit="10"/>
<path d="M1288.55 677.659C1287.69 633.327 1278.81 587.746 1261.22 542.812C1205.63 400.708 1059.96 296.154 889.459 296.154C718.959 296.154 573.293 400.708 517.701 542.812C500.126 587.768 491.23 633.349 490.369 677.659" stroke="url(#paint9_linear_416_3643)" stroke-width="3" stroke-miterlimit="10"/>
<path d="M1288.55 677.659C1296.58 628.396 1294.82 575.84 1281.66 522.637C1239.85 353.448 1079.95 224.306 889.459 224.306C698.971 224.306 539.068 353.448 497.261 522.637C484.101 575.84 482.335 628.396 490.369 677.659" stroke="url(#paint10_linear_416_3643)" stroke-width="3" stroke-miterlimit="10"/>
<path d="M1288.55 677.659C1305.48 623.444 1310.97 563.911 1302.1 502.462C1274.51 306.144 1099.94 152.457 889.46 152.457C678.983 152.457 504.391 306.144 476.821 502.462C467.969 563.911 473.439 623.444 490.369 677.659" stroke="url(#paint11_linear_416_3643)" stroke-width="3" stroke-miterlimit="10"/>
<path d="M1288.55 677.659C1314.38 618.493 1326.98 552.027 1322.54 482.289C1308.75 258.928 1119.92 80.6094 889.459 80.6094C658.995 80.6094 470.165 258.949 456.381 482.289C451.944 552.027 464.544 618.493 490.369 677.659" stroke="url(#paint12_linear_416_3643)" stroke-width="3" stroke-miterlimit="10"/>
<path d="M1288.55 677.659C1323.27 613.562 1342.98 540.142 1342.98 462.135C1342.98 211.753 1139.93 8.78223 889.46 8.78223C638.986 8.78223 435.919 211.753 435.919 462.135C435.919 540.142 455.648 613.562 490.347 677.659" stroke="url(#paint13_linear_416_3643)" stroke-width="3" stroke-miterlimit="10"/>
<path d="M683.808 493.29C823.659 573.256 916.361 725.371 912.334 897.682C908.306 1069.99 808.582 1217.61 665.134 1290.94" stroke="url(#paint14_linear_416_3643)" stroke-width="3" stroke-miterlimit="10"/>
<path d="M665.134 1290.96C704.743 1282.14 743.772 1267.11 780.947 1245.9C897.644 1179.41 980.654 1049.78 984.165 899.362C987.697 748.947 910.847 615.585 797.381 543.694C761.218 520.785 722.965 503.948 683.808 493.269" stroke="url(#paint15_linear_416_3643)" stroke-width="3" stroke-miterlimit="10"/>
<path d="M665.134 1290.96C709.482 1291.14 755.273 1283.32 800.634 1266.81C944.039 1214.57 1052.03 1071.44 1056.02 901.063C1060 730.689 958.836 582.643 818.037 523.756C773.495 505.132 728.113 495.185 683.808 493.29" stroke="url(#paint16_linear_416_3643)" stroke-width="3" stroke-miterlimit="10"/>
<path d="M665.134 1290.96C714.221 1300.14 766.818 1299.6 820.342 1287.71C990.519 1249.88 1123.43 1093.12 1127.89 902.742C1132.35 712.367 1006.93 549.55 838.714 503.819C785.815 489.436 733.304 486.444 683.829 493.312" stroke="url(#paint17_linear_416_3643)" stroke-width="3" stroke-miterlimit="10"/>
<path d="M665.134 1290.96C718.959 1309.16 778.363 1316.03 840.028 1308.62C1037.02 1285.65 1194.79 1114.78 1199.72 904.422C1204.66 694.066 1055.03 516.006 859.327 483.86C798.071 473.568 738.408 477.659 683.808 493.312" stroke="url(#paint18_linear_416_3643)" stroke-width="3" stroke-miterlimit="10"/>
<path d="M665.134 1290.96C723.698 1318.16 789.864 1332.3 859.714 1329.5C1083.42 1320.96 1266.17 1136.44 1271.58 906.101C1276.98 675.764 1103.04 482.891 879.982 463.9C810.348 457.85 743.578 468.874 683.808 493.311" stroke="url(#paint19_linear_416_3643)" stroke-width="3" stroke-miterlimit="10"/>
<path d="M665.134 1290.96C728.436 1327.16 801.388 1348.58 879.401 1350.41C1129.81 1356.27 1337.55 1158.1 1343.41 907.78C1349.27 657.463 1151.03 449.798 900.616 443.942C822.603 442.111 748.726 460.111 683.786 493.29" stroke="url(#paint20_linear_416_3643)" stroke-width="3" stroke-miterlimit="10"/>
<path d="M854.61 674.989C777.91 816.619 627.958 912.819 455.519 912.819C283.08 912.819 133.149 816.619 56.4282 674.989" stroke="url(#paint21_linear_416_3643)" stroke-width="3" stroke-miterlimit="10"/>
<path d="M56.4282 674.989C66.1853 714.369 82.1454 753.017 104.201 789.684C173.426 904.745 305.028 984.667 455.519 984.667C606.031 984.667 737.611 904.745 806.837 789.684C828.893 753.017 844.853 714.369 854.61 674.989" stroke="url(#paint22_linear_416_3643)" stroke-width="3" stroke-miterlimit="10"/>
<path d="M56.4282 674.989C57.2898 719.321 66.1637 764.902 83.7608 809.837C139.352 951.94 285.019 1056.49 455.519 1056.49C626.019 1056.49 771.686 951.94 827.277 809.837C844.853 764.88 853.748 719.3 854.61 674.989" stroke="url(#paint23_linear_416_3643)" stroke-width="3" stroke-miterlimit="10"/>
<path d="M56.4282 674.989C48.3943 724.252 50.1604 776.809 63.3206 830.011C105.127 999.201 265.031 1128.34 455.519 1128.34C646.007 1128.34 805.911 999.201 847.717 830.011C860.877 776.809 862.644 724.252 854.61 674.989" stroke="url(#paint24_linear_416_3643)" stroke-width="3" stroke-miterlimit="10"/>
<path d="M56.4282 674.989C39.4988 729.204 34.0064 788.737 42.8804 850.186C70.4715 1046.5 245.043 1200.19 455.519 1200.19C665.995 1200.19 840.588 1046.5 868.158 850.186C877.01 788.737 871.539 729.204 854.61 674.989" stroke="url(#paint25_linear_416_3643)" stroke-width="3" stroke-miterlimit="10"/>
<path d="M56.4283 674.989C30.6034 734.156 18.0032 800.622 22.4402 870.36C36.225 1093.72 225.055 1272.04 455.519 1272.04C685.983 1272.04 874.813 1093.7 888.598 870.36C893.035 800.622 880.435 734.156 854.61 674.989" stroke="url(#paint26_linear_416_3643)" stroke-width="3" stroke-miterlimit="10"/>
<path d="M56.4283 674.989C21.7295 739.087 2 812.507 2 890.513C2 1140.89 205.045 1343.87 455.519 1343.87C705.993 1343.87 909.038 1140.89 909.038 890.513C909.038 812.507 889.309 739.087 854.61 674.989" stroke="url(#paint27_linear_416_3643)" stroke-width="3" stroke-miterlimit="10"/>
<defs>
<linearGradient id="paint0_linear_416_3643" x1="554.113" y1="56.4082" x2="554.113" y2="854.298" gradientUnits="userSpaceOnUse">
<stop stop-color="#94299B"/>
<stop offset="0.536458" stop-color="#03756A"/>
<stop offset="1" stop-color="#6D74CC"/>
</linearGradient>
<linearGradient id="paint1_linear_416_3643" x1="518.186" y1="56.4082" x2="518.186" y2="854.298" gradientUnits="userSpaceOnUse">
<stop stop-color="#94299B"/>
<stop offset="0.536458" stop-color="#03756A"/>
<stop offset="1" stop-color="#6D74CC"/>
</linearGradient>
<linearGradient id="paint2_linear_416_3643" x1="482.259" y1="56.4082" x2="482.259" y2="854.298" gradientUnits="userSpaceOnUse">
<stop stop-color="#94299B"/>
<stop offset="0.536458" stop-color="#03756A"/>
<stop offset="1" stop-color="#6D74CC"/>
</linearGradient>
<linearGradient id="paint3_linear_416_3643" x1="446.311" y1="51.5752" x2="446.311" y2="859.131" gradientUnits="userSpaceOnUse">
<stop stop-color="#94299B"/>
<stop offset="0.536458" stop-color="#03756A"/>
<stop offset="1" stop-color="#6D74CC"/>
</linearGradient>
<linearGradient id="paint4_linear_416_3643" x1="410.374" y1="38.665" x2="410.374" y2="872.031" gradientUnits="userSpaceOnUse">
<stop stop-color="#94299B"/>
<stop offset="0.536458" stop-color="#03756A"/>
<stop offset="1" stop-color="#6D74CC"/>
</linearGradient>
<linearGradient id="paint5_linear_416_3643" x1="374.447" y1="21.5576" x2="374.447" y2="889.148" gradientUnits="userSpaceOnUse">
<stop stop-color="#94299B"/>
<stop offset="0.536458" stop-color="#03756A"/>
<stop offset="1" stop-color="#6D74CC"/>
</linearGradient>
<linearGradient id="paint6_linear_416_3643" x1="338.51" y1="2" x2="338.51" y2="908.706" gradientUnits="userSpaceOnUse">
<stop stop-color="#94299B"/>
<stop offset="0.536458" stop-color="#03756A"/>
<stop offset="1" stop-color="#6D74CC"/>
</linearGradient>
<linearGradient id="paint7_linear_416_3643" x1="889.459" y1="439.829" x2="889.459" y2="677.659" gradientUnits="userSpaceOnUse">
<stop stop-color="#94299B"/>
<stop offset="0.536458" stop-color="#03756A"/>
<stop offset="1" stop-color="#6D74CC"/>
</linearGradient>
<linearGradient id="paint8_linear_416_3643" x1="889.459" y1="367.981" x2="889.459" y2="677.659" gradientUnits="userSpaceOnUse">
<stop stop-color="#94299B"/>
<stop offset="0.536458" stop-color="#03756A"/>
<stop offset="1" stop-color="#6D74CC"/>
</linearGradient>
<linearGradient id="paint9_linear_416_3643" x1="889.459" y1="296.154" x2="889.459" y2="677.659" gradientUnits="userSpaceOnUse">
<stop stop-color="#94299B"/>
<stop offset="0.536458" stop-color="#03756A"/>
<stop offset="1" stop-color="#6D74CC"/>
</linearGradient>
<linearGradient id="paint10_linear_416_3643" x1="889.459" y1="224.306" x2="889.459" y2="677.659" gradientUnits="userSpaceOnUse">
<stop stop-color="#94299B"/>
<stop offset="0.536458" stop-color="#03756A"/>
<stop offset="1" stop-color="#6D74CC"/>
</linearGradient>
<linearGradient id="paint11_linear_416_3643" x1="889.464" y1="152.457" x2="889.464" y2="677.659" gradientUnits="userSpaceOnUse">
<stop stop-color="#94299B"/>
<stop offset="0.536458" stop-color="#03756A"/>
<stop offset="1" stop-color="#6D74CC"/>
</linearGradient>
<linearGradient id="paint12_linear_416_3643" x1="889.459" y1="80.6094" x2="889.459" y2="677.659" gradientUnits="userSpaceOnUse">
<stop stop-color="#94299B"/>
<stop offset="0.536458" stop-color="#03756A"/>
<stop offset="1" stop-color="#6D74CC"/>
</linearGradient>
<linearGradient id="paint13_linear_416_3643" x1="889.449" y1="8.78223" x2="889.449" y2="677.659" gradientUnits="userSpaceOnUse">
<stop stop-color="#94299B"/>
<stop offset="0.536458" stop-color="#03756A"/>
<stop offset="1" stop-color="#6D74CC"/>
</linearGradient>
<linearGradient id="paint14_linear_416_3643" x1="788.797" y1="493.29" x2="788.797" y2="1290.94" gradientUnits="userSpaceOnUse">
<stop stop-color="#94299B"/>
<stop offset="0.536458" stop-color="#03756A"/>
<stop offset="1" stop-color="#6D74CC"/>
</linearGradient>
<linearGradient id="paint15_linear_416_3643" x1="824.708" y1="493.269" x2="824.708" y2="1290.96" gradientUnits="userSpaceOnUse">
<stop stop-color="#94299B"/>
<stop offset="0.536458" stop-color="#03756A"/>
<stop offset="1" stop-color="#6D74CC"/>
</linearGradient>
<linearGradient id="paint16_linear_416_3643" x1="860.633" y1="493.29" x2="860.633" y2="1290.97" gradientUnits="userSpaceOnUse">
<stop stop-color="#94299B"/>
<stop offset="0.536458" stop-color="#03756A"/>
<stop offset="1" stop-color="#6D74CC"/>
</linearGradient>
<linearGradient id="paint17_linear_416_3643" x1="896.571" y1="489.786" x2="896.571" y2="1297.3" gradientUnits="userSpaceOnUse">
<stop stop-color="#94299B"/>
<stop offset="0.536458" stop-color="#03756A"/>
<stop offset="1" stop-color="#6D74CC"/>
</linearGradient>
<linearGradient id="paint18_linear_416_3643" x1="932.488" y1="478.2" x2="932.488" y2="1311.56" gradientUnits="userSpaceOnUse">
<stop stop-color="#94299B"/>
<stop offset="0.536458" stop-color="#03756A"/>
<stop offset="1" stop-color="#6D74CC"/>
</linearGradient>
<linearGradient id="paint19_linear_416_3643" x1="968.417" y1="462.271" x2="968.417" y2="1329.85" gradientUnits="userSpaceOnUse">
<stop stop-color="#94299B"/>
<stop offset="0.536458" stop-color="#03756A"/>
<stop offset="1" stop-color="#6D74CC"/>
</linearGradient>
<linearGradient id="paint20_linear_416_3643" x1="1004.33" y1="443.814" x2="1004.33" y2="1350.54" gradientUnits="userSpaceOnUse">
<stop stop-color="#94299B"/>
<stop offset="0.536458" stop-color="#03756A"/>
<stop offset="1" stop-color="#6D74CC"/>
</linearGradient>
<linearGradient id="paint21_linear_416_3643" x1="455.519" y1="674.989" x2="455.519" y2="912.819" gradientUnits="userSpaceOnUse">
<stop stop-color="#94299B"/>
<stop offset="0.536458" stop-color="#03756A"/>
<stop offset="1" stop-color="#6D74CC"/>
</linearGradient>
<linearGradient id="paint22_linear_416_3643" x1="455.519" y1="674.989" x2="455.519" y2="984.667" gradientUnits="userSpaceOnUse">
<stop stop-color="#94299B"/>
<stop offset="0.536458" stop-color="#03756A"/>
<stop offset="1" stop-color="#6D74CC"/>
</linearGradient>
<linearGradient id="paint23_linear_416_3643" x1="455.519" y1="674.989" x2="455.519" y2="1056.49" gradientUnits="userSpaceOnUse">
<stop stop-color="#94299B"/>
<stop offset="0.536458" stop-color="#03756A"/>
<stop offset="1" stop-color="#6D74CC"/>
</linearGradient>
<linearGradient id="paint24_linear_416_3643" x1="455.519" y1="674.989" x2="455.519" y2="1128.34" gradientUnits="userSpaceOnUse">
<stop stop-color="#94299B"/>
<stop offset="0.536458" stop-color="#03756A"/>
<stop offset="1" stop-color="#6D74CC"/>
</linearGradient>
<linearGradient id="paint25_linear_416_3643" x1="455.514" y1="674.989" x2="455.514" y2="1200.19" gradientUnits="userSpaceOnUse">
<stop stop-color="#94299B"/>
<stop offset="0.536458" stop-color="#03756A"/>
<stop offset="1" stop-color="#6D74CC"/>
</linearGradient>
<linearGradient id="paint26_linear_416_3643" x1="455.519" y1="674.989" x2="455.519" y2="1272.04" gradientUnits="userSpaceOnUse">
<stop stop-color="#94299B"/>
<stop offset="0.536458" stop-color="#03756A"/>
<stop offset="1" stop-color="#6D74CC"/>
</linearGradient>
<linearGradient id="paint27_linear_416_3643" x1="455.519" y1="674.989" x2="455.519" y2="1343.87" gradientUnits="userSpaceOnUse">
<stop stop-color="#94299B"/>
<stop offset="0.536458" stop-color="#03756A"/>
<stop offset="1" stop-color="#6D74CC"/>
</linearGradient>
</defs>
</svg>
