<svg width="30" height="30" viewBox="0 0 30 30" fill="none" xmlns="http://www.w3.org/2000/svg">
<path d="M18.7522 2.09961C15.18 2.09961 12.2812 4.99161 12.2812 8.55561C12.2812 12.1196 15.18 15.0116 18.7522 15.0116C22.3245 15.0116 25.2232 12.1196 25.2232 8.55561C25.2232 4.99161 22.3245 2.09961 18.7522 2.09961Z" fill="url(#paint0_linear_281_1577)"/>
<path d="M7.64981 15.6357C5.44871 15.6357 3.64453 17.4237 3.64453 19.6317C3.64453 21.8397 5.43668 23.6277 7.64981 23.6277C9.85091 23.6277 11.6551 21.8397 11.6551 19.6317C11.6551 17.4237 9.85091 15.6357 7.64981 15.6357Z" fill="url(#paint1_linear_281_1577)"/>
<path d="M19.9892 19.9443C18.1249 19.9443 16.6094 21.4563 16.6094 23.3163C16.6094 25.1763 18.1249 26.6883 19.9892 26.6883C21.8535 26.6883 23.369 25.1763 23.369 23.3163C23.369 21.4563 21.8535 19.9443 19.9892 19.9443Z" fill="url(#paint2_linear_281_1577)"/>
<defs>
<linearGradient id="paint0_linear_281_1577" x1="12.2812" y1="8.55561" x2="25.2232" y2="8.55561" gradientUnits="userSpaceOnUse">
<stop stop-color="#B224EF"/>
<stop offset="1" stop-color="#7579FF"/>
</linearGradient>
<linearGradient id="paint1_linear_281_1577" x1="3.64453" y1="19.6317" x2="11.6551" y2="19.6317" gradientUnits="userSpaceOnUse">
<stop stop-color="#B224EF"/>
<stop offset="1" stop-color="#7579FF"/>
</linearGradient>
<linearGradient id="paint2_linear_281_1577" x1="16.6094" y1="23.3163" x2="23.369" y2="23.3163" gradientUnits="userSpaceOnUse">
<stop stop-color="#B224EF"/>
<stop offset="1" stop-color="#7579FF"/>
</linearGradient>
</defs>
</svg>
